# xmcd
#
# Track frame offsets:
# 150
# 15942
# 32977
#
# Disc length: 687 seconds
#
# Revision: 1
# Processed by: cddbd v1.5.2PL0 Copyright (c) Steve Scherf et al.
# Submitted via: CedeCatalogueitor 2.6.0.6 http://personales.ya.com/cdcatalogueitor
#
DISCID=1702ad03
DTITLE=BC Camplight - Lord, I've On Fire
DYEAR=1900
DGENRE=
TTITLE0=Lord, I've Of Fire
TTITLE1=The Hip And The Homeless
TTITLE2=Soy Tonto!
EXTD=
EXTT0=
EXTT1=
EXTT2=
PLAYORDER=
